<svg width="24" height="25" viewBox="0 0 24 25" fill="none" xmlns="http://www.w3.org/2000/svg">
<path fill-rule="evenodd" clip-rule="evenodd" d="M3 11.5984C3 11.3222 3.22386 11.0984 3.5 11.0984L19.5 11.0984C19.7761 11.0984 20 11.3222 20 11.5984C20 11.8745 19.7761 12.0984 19.5 12.0984L3.5 12.0984C3.22386 12.0984 3 11.8745 3 11.5984Z" fill="white"/>
<path fill-rule="evenodd" clip-rule="evenodd" d="M15.6464 7.74484C15.8417 7.54957 16.1583 7.54957 16.3536 7.74484L20.2071 11.5984L16.3536 15.4519C16.1583 15.6472 15.8417 15.6472 15.6464 15.4519C15.4512 15.2567 15.4512 14.9401 15.6464 14.7448L18.7929 11.5984L15.6464 8.45194C15.4512 8.25668 15.4512 7.9401 15.6464 7.74484Z" fill="white"/>
</svg>
